PathFileType	4	(X/Y/Z)	/Users/itak/Documents/Research/Walk-IL/dataset/trc/00270_00010.trc
DataRate	CameraRate	NumFrames	NumMarkers	Units	OrigDataRate	OrigDataStartFrame	OrigNumFrames
100.000000	100.000000	4	55	mm	100.000000	114	456
Frame#	Time	RPSI			LPSI			L3			STRN			T10			C7			CLAV			RBAK			LBAK			LSHO			LUPA			LAEL			LAOL			LWTS			LWPS			LFRA			LIFD			LHPS			LHTS			RSHO			RUPA			RAEL			RAOL			RWTS			RWPS			RFRA			RIFD			RHTS			RHPS			RBHD			LFHD			RFHD			LBHD			LHIP			RASI			LKNE			LANK			LTIP			LTOE			LMT1			LMT5			LHEE			RKNE			RTHI			RANK			RTIP			RTOE			RMT1			RMT5			RHEE			RHIP			LTHI			LASI			*53			*54			
		X1	Y1	Z1	X2	Y2	Z2	X3	Y3	Z3	X4	Y4	Z4	X5	Y5	Z5	X6	Y6	Z6	X7	Y7	Z7	X8	Y8	Z8	X9	Y9	Z9	X10	Y10	Z10	X11	Y11	Z11	X12	Y12	Z12	X13	Y13	Z13	X14	Y14	Z14	X15	Y15	Z15	X16	Y16	Z16	X17	Y17	Z17	X18	Y18	Z18	X19	Y19	Z19	X20	Y20	Z20	X21	Y21	Z21	X22	Y22	Z22	X23	Y23	Z23	X24	Y24	Z24	X25	Y25	Z25	X26	Y26	Z26	X27	Y27	Z27	X28	Y28	Z28	X29	Y29	Z29	X30	Y30	Z30	X31	Y31	Z31	X32	Y32	Z32	X33	Y33	Z33	X34	Y34	Z34	X35	Y35	Z35	X36	Y36	Z36	X37	Y37	Z37	X38	Y38	Z38	X39	Y39	Z39	X40	Y40	Z40	X41	Y41	Z41	X42	Y42	Z42	X43	Y43	Z43	X44	Y44	Z44	X45	Y45	Z45	X46	Y46	Z46	X47	Y47	Z47	X48	Y48	Z48	X49	Y49	Z49	X50	Y50	Z50	X51	Y51	Z51	X52	Y52	Z52	X53	Y53	Z53	X54	Y54	Z54	X55	Y55	Z55	

115	1.14	620.4918823242188	972.7781982421875	96.94149780273438	613.0969848632812	960.4719848632812	-77.83541107177734	631.5223388671875	1037.922729492188	-1.088295578956604	875.0587158203125	1218.024169921875	-0.1829055547714233	613.0559692382812	1148.55712890625	-8.648844718933105	651.9521484375	1394.393310546875	-25.06971549987793	809.0049438476562	1316.701293945312	-6.329284191131592	601.73779296875	1254.679565429688	45.25937271118164	642.21533203125	1357.804565429688	-128.7910614013672	734.7174682617188	1366.044555664062	-173.1340637207031	706.9146118164062	1251.522216796875	-250.0444641113281	705.1786499023438	1051.72119140625	-274.8270263671875	642.2640991210938	1035.323974609375	-215.9099884033203	807.638671875	843.8779296875	-242.97412109375	773.123046875	831.8742065429688	-306.0548095703125	727.631591796875	953.4780883789062	-290.4486083984375	834.10009765625	658.6964111328125	-259.5338134765625	788.9143676757812	744.4965209960938	-310.4993286132812	843.2445068359375	751.7611083984375	-273.9961242675781	705.6132202148438	1377.473876953125	137.9269409179688	686.1731567382812	1328.034790039062	204.1104125976562	613.8322143554688	1077.288330078125	257.3091125488281	608.4458618164062	1063.32080078125	162.0806732177734	736.6602783203125	865.8668212890625	266.1744079589844	669.1862182617188	858.1358032226562	316.9439392089844	629.3883056640625	1013.391418457031	282.4769897460938	767.1902465820312	683.2015380859375	289.4077758789062	770.4103393554688	756.6364135742188	303.8582153320312	705.9026489257812	750.3036499023438	331.1253967285156	683.588134765625	1555.5615234375	57.77248001098633	853.3151245117188	1589.752563476562	-64.86769104003906	854.2554321289062	1586.065551757812	26.69379043579102	683.1646728515625	1549.19970703125	-90.49662017822266	673.0986938476562	905.4483032226562	-175.8108520507812	844.0210571289062	933.4130859375	115.3476867675781	686.1641235351562	441.4017028808594	-163.3402709960938	360.4166564941406	119.4433059692383	-129.5335693359375	521.5629272460938	277.4424743652344	-159.2053527832031	532.2913208007812	29.82753944396973	-50.47655868530273	465.5650939941406	53.84424209594727	-16.52499961853027	463.0191040039062	53.57196426391602	-127.1687545776367	317.0923767089844	148.6076507568359	-76.14607238769531	868.2744750976562	472.9398193359375	144.5479125976562	831.3461303710938	732.3478393554688	188.5120086669922	903.944091796875	36.08321762084961	105.6612091064453	905.004150390625	356.8485107421875	125.4501419067383	1097.4443359375	47.79952621459961	44.4913444519043	1040.728393554688	34.22831344604492	8.800816535949707	1008.921142578125	37.0579833984375	122.94140625	853.6690063476562	27.5683536529541	55.46474838256836	732.037109375	933.3423461914062	196.1459808349609	695.3518676757812	582.6932373046875	-175.2221374511719	815.8031616210938	914.4253540039062	-136.1478576660156	nan	nan	nan	nan	nan	nan	
116	1.15	614.068115234375	972.0607299804688	96.20634460449219	605.7217407226562	959.919921875	-78.55022430419922	624.93798828125	1037.35009765625	-2.05976390838623	868.6807861328125	1216.807739257812	-2.297865867614746	606.703857421875	1147.710693359375	-9.818414688110352	645.6862182617188	1393.519775390625	-26.70925712585449	802.85302734375	1315.637084960938	-8.309850692749023	595.6363525390625	1253.8046875	43.78951644897461	635.6808471679688	1356.934692382812	-130.4104461669922	728.1044921875	1365.088500976562	-174.9469757080078	700.4107666015625	1250.376220703125	-251.6886444091797	699.8408203125	1050.700439453125	-276.3628845214844	636.809814453125	1033.749389648438	-217.7015686035156	806.515380859375	845.7158813476562	-244.0260162353516	772.7127685546875	833.0325927734375	-307.3744506835938	724.2208251953125	953.3480224609375	-291.9124450683594	838.2879028320312	661.4583129882812	-261.135986328125	791.0244750976562	746.256103515625	-312.1096496582031	844.86181640625	754.8216552734375	-275.1925659179688	699.7182006835938	1376.623657226562	136.120361328125	680.5410766601562	1327.140258789062	202.372314453125	607.8187866210938	1076.665649414062	255.4827575683594	602.5366821289062	1062.6484375	159.7577819824219	727.3112182617188	863.0143432617188	264.3337097167969	659.290771484375	856.3220825195312	314.5599670410156	622.32421875	1012.217407226562	280.1824951171875	754.2764282226562	679.7953491210938	287.3605041503906	758.784912109375	753.09814453125	302.0053100585938	693.935791015625	747.88427734375	328.7348022460938	677.0501708984375	1554.46484375	56.12853240966797	846.8314819335938	1589.295654296875	-66.30345916748047	847.6785278320312	1585.394897460938	25.27736663818359	676.762939453125	1548.412353515625	-92.13478851318359	665.2288208007812	904.7974853515625	-176.8197937011719	837.4818115234375	932.0105590820312	113.5341262817383	675.933349609375	440.7515563964844	-162.3702850341797	356.1670532226562	112.63232421875	-129.5697631835938	514.0310668945312	273.9468688964844	-158.6669311523438	530.7052612304688	29.80898666381836	-49.68582153320312	462.8172302246094	50.2002067565918	-15.89800071716309	461.0997314453125	50.5846061706543	-126.6882019042969	311.8326416015625	140.37353515625	-76.41489410400391	863.2498779296875	472.3692626953125	143.7634735107422	825.481201171875	731.5989379882812	187.3927917480469	903.6140747070312	36.07488632202148	105.7166976928711	900.9513549804688	357.0334777832031	125.2057342529297	1096.966064453125	49.49778366088867	44.66983413696289	1040.429321289062	35.40692901611328	8.936344146728516	1008.582153320312	37.75828170776367	123.0742721557617	853.5642700195312	27.28630447387695	55.33409118652344	725.9771118164062	932.1852416992188	194.8684844970703	686.1321411132812	581.7742309570312	-175.2541656494141	807.990966796875	913.2998046875	-137.855224609375	nan	nan	nan	nan	nan	nan	
117	1.16	607.3040771484375	971.2431030273438	95.51974487304688	598.0089721679688	959.2860107421875	-79.21295166015625	618.001220703125	1036.793823242188	-3.013551950454712	862.1381225585938	1215.458129882812	-4.533428192138672	600.1237182617188	1146.987426757812	-11.01053047180176	639.4312133789062	1392.741943359375	-28.43851089477539	796.645751953125	1314.499877929688	-10.41092300415039	589.4661865234375	1253.07568359375	42.29761123657227	629.1062622070312	1356.137084960938	-132.1135406494141	721.4601440429688	1364.114990234375	-176.8626708984375	693.8322143554688	1249.192993164062	-253.416015625	694.3187255859375	1049.7041015625	-277.875244140625	631.1483764648438	1032.176635742188	-219.5359191894531	805.05517578125	847.6279296875	-245.0781097412109	771.9745483398438	834.2577514648438	-308.6754150390625	720.5411987304688	953.212158203125	-293.3486022949219	842.1529541015625	664.4931640625	-262.6348571777344	792.7674560546875	748.1287841796875	-313.6311645507812	846.1303100585938	758.0557250976562	-276.364013671875	693.8856811523438	1375.834594726562	134.2223815917969	674.9886474609375	1326.287841796875	200.5767364501953	601.8966674804688	1076.080810546875	253.6470489501953	596.5222778320312	1062.058715820312	157.5078277587891	717.9334716796875	860.2378540039062	262.382080078125	649.467041015625	854.6363525390625	312.1584167480469	615.343505859375	1011.119262695312	277.9226684570312	741.1704711914062	676.4869995117188	285.1017456054688	747.0470581054688	749.6265258789062	299.9472961425781	681.9443969726562	745.6103515625	326.2503051757812	670.5049438476562	1553.402709960938	54.38077926635742	840.3219604492188	1588.890380859375	-67.86337280273438	841.0733642578125	1584.786987304688	23.75606918334961	670.3399047851562	1547.634765625	-93.86986541748047	657.017333984375	904.146484375	-177.7950897216797	830.5730590820312	930.5428466796875	111.6940612792969	666.31640625	440.0514526367188	-161.505615234375	352.0830078125	106.4964752197266	-129.3357086181641	506.9189147949219	270.6753234863281	-158.0632629394531	529.29052734375	30.0828742980957	-49.00794982910156	460.3334350585938	47.02125930786133	-15.31145477294922	459.3007202148438	48.39835357666016	-126.2634201049805	306.7973022460938	132.72802734375	-76.30754089355469	858.0923461914062	471.7974243164062	142.9459991455078	819.3138427734375	730.7992553710938	186.2386016845703	903.2020874023438	36.0628662109375	105.7593612670898	896.7802734375	357.1785278320312	124.9439697265625	1096.404174804688	51.50891494750977	44.99558639526367	1040.097412109375	36.80515289306641	9.166717529296875	1008.147094726562	38.63594436645508	123.2689208984375	853.3699340820312	26.9044189453125	55.19167709350586	719.5888061523438	930.9060668945312	193.6134948730469	677.3687744140625	580.8305053710938	-175.3171997070312	799.8574829101562	912.1424560546875	-139.5698547363281	nan	nan	nan	nan	nan	nan	
118	1.17	600.2037353515625	970.3359985351562	94.89334106445312	589.970947265625	958.6109008789062	-79.82039642333984	610.6851806640625	1036.279418945312	-3.949124574661255	855.4295654296875	1213.999877929688	-6.880626678466797	593.3088989257812	1146.426025390625	-12.22801399230957	633.1921997070312	1392.088623046875	-30.25042152404785	790.380126953125	1313.312255859375	-12.62256240844727	583.212890625	1252.52685546875	40.78302001953125	622.4968872070312	1355.442749023438	-133.8973999023438	714.7933959960938	1363.149780273438	-178.8737640380859	687.1912841796875	1247.996704101562	-255.2186431884766	688.6300048828125	1048.757202148438	-279.3639526367188	625.29638671875	1030.629150390625	-221.4158630371094	803.2191162109375	849.5904541015625	-246.1495819091797	770.8529052734375	835.5250244140625	-309.9642639160156	716.5897827148438	953.0795288085938	-294.7640991210938	845.6070556640625	667.7711791992188	-264.0364074707031	794.06103515625	750.0571899414062	-315.0613708496094	846.9788208007812	761.431884765625	-277.5370788574219	688.1141967773438	1375.128540039062	132.2430572509766	669.5040283203125	1325.502319335938	198.7349090576172	596.0146484375	1075.528564453125	251.7382049560547	590.3563842773438	1061.58154296875	155.3322143554688	708.5459594726562	857.6008911132812	260.3143920898438	639.7390747070312	853.1233520507812	309.7451171875	608.4305419921875	1010.131225585938	275.7015991210938	727.9185791015625	673.3479614257812	282.6299133300781	735.240478515625	746.2903442382812	297.6766052246094	669.974365234375	743.5386352539062	323.6796569824219	663.9733276367188	1552.415771484375	52.53963088989258	833.8049926757812	1588.544677734375	-69.54745483398438	834.4659423828125	1584.2587890625	22.12349319458008	663.9097900390625	1546.892456054688	-95.69391632080078	648.4568481445312	903.5455932617188	-178.7391967773438	823.3134155273438	929.0361938476562	109.8332748413086	657.3389282226562	439.3326416015625	-160.8003845214844	348.1538696289062	101.052116394043	-128.732666015625	500.2629699707031	267.61865234375	-157.3552856445312	528.0072021484375	30.48932647705078	-48.40596771240234	458.1327209472656	44.30917739868164	-14.72909355163574	457.5513305664062	46.95899200439453	-125.8338851928711	302.003662109375	125.7152328491211	-75.72467803955078	852.8126831054688	471.2409362792969	142.1018371582031	812.8384399414062	729.962646484375	185.0459442138672	902.7064208984375	36.03609848022461	105.785530090332	892.4964599609375	357.2853698730469	124.6541900634766	1095.726928710938	53.88009643554688	45.46133422851562	1039.708862304688	38.45696640014648	9.48409366607666	1007.600891113281	39.71415710449219	123.5240173339844	853.0643310546875	26.41080284118652	55.04267883300781	712.8640747070312	929.5164184570312	192.3758850097656	669.0087280273438	579.928955078125	-175.4905853271484	791.4395141601562	910.995361328125	-141.2919006347656	nan	nan	nan	nan	nan	nan	
